<?xml version="1.0" standalone="no"?><!DOCTYPE svg PUBLIC "-//W3C//DTD SVG 1.1//EN" "http://www.w3.org/Graphics/SVG/1.1/DTD/svg11.dtd"><svg t="1613301639305" class="icon" viewBox="0 0 1079 1024" version="1.1" xmlns="http://www.w3.org/2000/svg" p-id="4320" width="50.578125" height="48" xmlns:xlink="http://www.w3.org/1999/xlink"><defs><style type="text/css"></style></defs><path d="M76.793411 917.514543h926.028108c42.409678 0 76.793411 23.840618 76.79341 53.242729S1045.231197 1024 1002.821519 1024H76.793411C34.383732 1024 0 1000.159382 0 970.757272s34.383732-53.242728 76.793411-53.242729zM542.443243 0C571.845354 0 595.685972 36.43964 595.685972 81.379665v632.191506c0 44.940026-23.840618 81.379665-53.242729 81.379666s-53.242728-36.43964-53.242728-81.379666V81.379665C489.200515 36.43964 513.041133 0 542.443243 0z" p-id="4321" fill="#ffffff"></path><path d="M580.029447 746.386615L854.387645 463.224916a51.2 51.2 0 0 1 79.323758 5.060695 53.954389 53.954389 0 0 1-5.034337 69.070579L579.146461 894.6887a51.107748 51.107748 0 0 1-73.406435 0L156.2226 537.35619a53.954389 53.954389 0 0 1-5.034337-69.070579 51.2 51.2 0 0 1 79.323758-5.060695l274.345019 283.161699a51.134106 51.134106 0 0 0 75.172407 0z" p-id="4322" fill="#ffffff"></path></svg>