<?xml version="1.0" standalone="no"?><!DOCTYPE svg PUBLIC "-//W3C//DTD SVG 1.1//EN" "http://www.w3.org/Graphics/SVG/1.1/DTD/svg11.dtd"><svg t="1613301328036" class="icon" viewBox="0 0 1137 1024" version="1.1" xmlns="http://www.w3.org/2000/svg" p-id="2447" width="53.296875" height="48" xmlns:xlink="http://www.w3.org/1999/xlink"><defs><style type="text/css"></style></defs><path d="M786.99844883 62a298.88768232 298.88768232 0 0 0-225 102.99875888A298.78994707 298.78994707 0 0 0 337.05429717 62C182.07446504 62 62 179.70089961 62 331.74868115c0 186.38070117 169.97517862 335.95718291 427.49301885 566.47223086l72.50542998 63.77908799L634.44802959 898.23487432C892.03568135 667.70586406 1061.99689766 518.12938232 1061.99689766 331.74868115c0-152.04778154-119.97672979-269.74868115-275.05429717-269.74868115z m-194.07384404 771.70183067l-10.15048125 9.08935751-20.70586406 18.15079132-20.70586407-18.15079132-10.2342542-9.08935751C409.95066729 725.20198614 305.31833721 631.55786504 236.08004961 547.78498261c-67.18585166-81.37139326-97.16258144-147.99875888-97.16258144-216.05026376 0-53.5867207 20.25907558-102.94291055 57.0353704-139.00713575S282.60192325 137.0046544 337.05429717 137.0046544c62.82966182 0 124.96121631 28.5246668 166.1495502 76.27520917l58.8364875 68.26093682 58.83648837-68.26093682c41.21625849-47.75054326 103.31988838-76.27520918 166.14954932-76.27520917 54.34067636 0 104.43686045 19.79832481 141.01768564 55.73689101s57.03537041 85.42041592 57.0353713 139.00713574c0 68.05150489-29.97672979 134.6649082-97.16258145 216.05026377C818.74837109 631.55786504 714.03226807 725.20198614 592.86875557 833.70183067z m0 0" fill="#ffffff" p-id="2448"></path></svg>