<?xml version="1.0" standalone="no"?><!DOCTYPE svg PUBLIC "-//W3C//DTD SVG 1.1//EN" "http://www.w3.org/Graphics/SVG/1.1/DTD/svg11.dtd"><svg t="1613464110302" class="icon" viewBox="0 0 1024 1024" version="1.1" xmlns="http://www.w3.org/2000/svg" p-id="15443" width="32" height="32" xmlns:xlink="http://www.w3.org/1999/xlink"><defs><style type="text/css"></style></defs><path d="M768 729.088a34.133333 34.133333 0 0 1 3.9936 68.061867l-3.9936 0.238933h-512a34.133333 34.133333 0 0 1-3.9936-68.027733l3.9936-0.238934h512z m0-221.866667a34.133333 34.133333 0 0 1 3.9936 68.061867l-3.9936 0.238933h-512a34.133333 34.133333 0 0 1-3.9936-68.027733l3.9936-0.238933h512zM260.369067 226.645333c6.314667 0 12.4928 1.706667 17.92 4.9152L387.754667 297.301333a34.816 34.816 0 0 1 3.515733 57.2416l-3.515733 2.389334-109.4656 65.706666a34.816 34.816 0 0 1-52.701867-29.832533V261.393067c0-19.217067 15.598933-34.781867 34.816-34.781867z m257.774933 58.709334h249.856a34.133333 34.133333 0 0 1 3.9936 68.061866l-3.9936 0.238934h-249.856a34.133333 34.133333 0 0 1-3.959467-68.027734l3.959467-0.238933z" fill="#ffffff" p-id="15444"></path></svg>