<?xml version="1.0" standalone="no"?><!DOCTYPE svg PUBLIC "-//W3C//DTD SVG 1.1//EN" "http://www.w3.org/Graphics/SVG/1.1/DTD/svg11.dtd"><svg t="1613463986475" class="icon" viewBox="0 0 1293 1024" version="1.1" xmlns="http://www.w3.org/2000/svg" p-id="10733" width="40.40625" height="32" xmlns:xlink="http://www.w3.org/1999/xlink"><defs><style type="text/css"></style></defs><path d="M1239.578947 565.894737c-32.336842 0-53.894737 21.557895-53.894736 53.894737v53.894737c0 118.568421-97.010526 215.578947-215.578948 215.578947H323.368421c-118.568421 0-215.578947-97.010526-215.578947-215.578947v-215.578948c0-118.568421 97.010526-215.578947 215.578947-215.578947h792.252632l-43.11579 43.115789c-16.168421 16.168421-16.168421 48.505263 0 64.673684s48.505263 16.168421 64.673684 0l129.347369-129.347368c16.168421-16.168421 16.168421-48.505263 0-64.673684L1137.178947 26.947368c-16.168421-16.168421-48.505263-16.168421-64.673684 0s-16.168421 48.505263 0 64.673685l43.11579 43.115789H323.368421c-177.852632 0-323.368421 145.515789-323.368421 323.368421v215.578948c0 177.852632 145.515789 323.368421 323.368421 323.368421h646.736842c177.852632 0 323.368421-145.515789 323.368421-323.368421v-53.894737c0-32.336842-21.557895-53.894737-53.894737-53.894737z" p-id="10734" fill="#ffffff"></path><path d="M662.905263 803.031579V393.431579h-97.010526l-32.336842 59.28421h70.063158v350.31579z" p-id="10735" fill="#ffffff"></path></svg>