<?xml version="1.0" standalone="no"?><!DOCTYPE svg PUBLIC "-//W3C//DTD SVG 1.1//EN" "http://www.w3.org/Graphics/SVG/1.1/DTD/svg11.dtd"><svg t="1613464078108" class="icon" viewBox="0 0 1024 1024" version="1.1" xmlns="http://www.w3.org/2000/svg" p-id="14595" width="32" height="32" xmlns:xlink="http://www.w3.org/1999/xlink"><defs><style type="text/css"></style></defs><path d="M805.323 166.36c27.65 0 50.274 22.624 50.274 50.275v590.73c0 27.651-22.623 50.275-50.274 50.275s-50.275-22.624-50.275-50.275v-590.73c0-27.651 22.623-50.275 50.275-50.275zM668.638 476.65L236.43 174.06c-13.197-9.27-30.48-10.37-44.776-2.986-14.297 7.542-23.252 22.153-23.252 38.335V814.75c0 16.182 8.955 30.95 23.252 38.335 14.297 7.227 31.579 6.284 44.776-2.985l432.364-302.592c11.469-8.17 18.382-21.367 18.382-35.507 0-14.14-6.913-27.337-18.54-35.35z" p-id="14596" fill="#ffffff"></path></svg>