<?xml version="1.0" standalone="no"?><!DOCTYPE svg PUBLIC "-//W3C//DTD SVG 1.1//EN" "http://www.w3.org/Graphics/SVG/1.1/DTD/svg11.dtd"><svg t="1612614295770" class="icon" viewBox="0 0 1024 1024" version="1.1" xmlns="http://www.w3.org/2000/svg" p-id="1852" xmlns:xlink="http://www.w3.org/1999/xlink" width="32" height="32"><defs><style type="text/css"></style></defs><path d="M156.608 487.86c1.156-1.138 2.649-1.623 3.919-2.56l306.667-301.569c13.195-12.97 34.586-12.97 47.78 0a32.836 32.836 0 0 1 0 46.988L263.303 478.21h579.204c18.978 0 34.362 15.129 34.362 33.79 0 18.662-15.384 33.793-34.362 33.793H263.302L514.974 793.28a32.832 32.832 0 0 1 0 46.985c-13.195 12.974-34.587 12.974-47.781 0L160.526 538.703c-1.27-0.94-2.763-1.422-3.92-2.562-6.334-6.23-9.24-14.34-9.476-22.503 0.237-11.437 3.143-19.547 9.478-25.779z m0 0" p-id="1853"></path></svg>