<?xml version="1.0" standalone="no"?><!DOCTYPE svg PUBLIC "-//W3C//DTD SVG 1.1//EN" "http://www.w3.org/Graphics/SVG/1.1/DTD/svg11.dtd"><svg t="1612614884355" class="icon" viewBox="0 0 1024 1024" version="1.1" xmlns="http://www.w3.org/2000/svg" p-id="1172" xmlns:xlink="http://www.w3.org/1999/xlink" width="32" height="32"><defs><style type="text/css"></style></defs><path d="M723.8 59c-78.7 0-154.1 30-211.5 83.4C455 89.1 379.6 59 300.9 59 138.8 59 12 183.8 12 343.2c0 186.1 159.4 328.9 400.9 545.7l77.4 68c12.7 10.7 31.4 10.7 43.4 0l66.7-58.7 10.7-9.3C852.6 672.8 1012 529.3 1012 343.2 1012.7 183.8 885.9 59 723.8 59z m-414.3 61.4c70.7 2 137.4 36.7 183.5 90.1l19.3 22 19.3-22c46.7-53.4 112.7-88.1 183.5-90.1 134.1-4 236.2 93.4 236.2 222.8 0 38-8.7 74.7-25.4 112.1H668.4l-23.3-49.4c-6-12-18-19.3-31.4-20-13.3 0-26 8-31.4 20l-58 118.7L451 371.2c-6-12.7-18-22-32-22.7-13.3-0.7-25.4 6-32 16.7l-56.7 90.1H98.1c-16.7-36.7-25.4-74-25.4-112.1 0-130.1 102.1-227.5 236.8-222.8zM571 843.6l-36.7 32.7c-12.7 11.3-31.4 11.3-44 0l-36.7-32.7C310.2 714.8 196.8 613.4 132.1 516.7h231.5l50.7-80.7 76.1 159.4c6 13.3 19.3 21.3 34 21.3s28-8 34-22l56-112.7 15.3 32h264.2c-64 97.4-178.1 199.5-322.9 329.6z" p-id="1173" fill="#d81e06"></path></svg>