<?xml version="1.0" standalone="no"?><!DOCTYPE svg PUBLIC "-//W3C//DTD SVG 1.1//EN" "http://www.w3.org/Graphics/SVG/1.1/DTD/svg11.dtd"><svg t="1612613667529" class="icon" viewBox="0 0 1060 1024" version="1.1" xmlns="http://www.w3.org/2000/svg" p-id="1703" xmlns:xlink="http://www.w3.org/1999/xlink" width="49.6875" height="48"><defs><style type="text/css"></style></defs><path d="M395.776 639.049143c-138.861714 0-251.465143-113.737143-251.465143-254.061714S256.914286 130.925714 395.776 130.925714c138.898286 0 251.465143 113.773714 251.465143 254.098286s-112.566857 254.061714-251.465143 254.061714z m335.981714-34.121143l-44.617143 16.128a378.221714 378.221714 0 0 0 82.358858-236.068571C769.462857 176.457143 602.185143 7.424 395.702857 7.424 189.403429 7.424 22.125714 176.457143 22.125714 384.987429c0 208.493714 167.277714 377.563429 373.686857 377.563428 97.901714 0 186.733714-38.363429 253.366858-100.571428l-16.164572 41.691428 307.273143 307.236572 98.706286-98.742858-307.2-307.2z" fill="#666666" p-id="1704"></path></svg>