<?xml version="1.0" standalone="no"?><!DOCTYPE svg PUBLIC "-//W3C//DTD SVG 1.1//EN" "http://www.w3.org/Graphics/SVG/1.1/DTD/svg11.dtd"><svg t="1612614431895" class="icon" viewBox="0 0 1024 1024" version="1.1" xmlns="http://www.w3.org/2000/svg" p-id="828" xmlns:xlink="http://www.w3.org/1999/xlink" width="32" height="32"><defs><style type="text/css"></style></defs><path d="M888.7 935.4H135.3c-22.1 0-40-17.9-40-40V306.3c0-22.1 17.9-40 40-40h753.4c22.1 0 40 17.9 40 40v589.1c0 22.1-17.9 40-40 40z m-713.4-80h673.4V346.3H175.3v509.1z" p-id="829" fill="#d81e06"></path><path d="M512.1 338.4c-10.2 0-20.5-3.9-28.3-11.7-15.6-15.6-15.6-40.9 0-56.6l169.7-169.7c15.6-15.6 40.9-15.6 56.6 0s15.6 40.9 0 56.6L540.4 326.6c-7.8 7.9-18 11.8-28.3 11.8z" p-id="830" fill="#d81e06"></path><path d="M511.9 338.4c-10.2 0-20.5-3.9-28.3-11.7L313.9 156.9c-15.6-15.6-15.6-40.9 0-56.6 15.6-15.6 40.9-15.6 56.6 0L540.2 270c15.6 15.6 15.6 40.9 0 56.6-7.9 7.8-18.1 11.8-28.3 11.8zM435.8 772.4c-6.9 0-13.8-1.8-20-5.4-12.4-7.1-20-20.3-20-34.6V468.5c0-14.3 7.6-27.5 20-34.6 12.4-7.1 27.6-7.1 40 0l228.5 131.9c12.4 7.1 20 20.3 20 34.6s-7.6 27.5-20 34.6L455.8 767c-6.1 3.6-13.1 5.4-20 5.4z m40-234.6v125.3l108.5-62.6-108.5-62.7z" p-id="831" fill="#d81e06"></path></svg>