<svg t="1648864450763" class="icon" viewBox="0 0 1024 1024" version="1.1" xmlns="http://www.w3.org/2000/svg" p-id="12042" width="32" height="32">
	<path d="M512 0c409.6 0 512 102.4 512 512S921.6 1024 512 1024 0 921.6 0 512 102.4 0 512 0z" fill="#d81e06" p-id="12043" data-spm-anchor-id="a313x.7781069.0.i10" class="">
	</path>
	<path d="M181.991131 547.108571a341.711726 341.711726 0 1 0 683.423452 0c0-188.726126-152.9856-341.711726-341.711726-341.711725S181.991131 358.382446 181.991131 547.108571z" fill="#fa2f31" p-id="12044" data-spm-anchor-id="a313x.7781069.0.i11" class="">
	</path>
	<path d="M170.288274 512a341.711726 341.711726 0 1 0 683.423452 0c0-188.726126-152.9856-341.711726-341.711726-341.711726S170.288274 323.273874 170.288274 512z" fill="#171616" p-id="12045">
	</path>
	<path d="M389.716846 512c0 67.537189 54.745966 122.283154 122.283154 122.283154s122.283154-54.745966 122.283154-122.283154S579.537189 389.716846 512 389.716846 389.716846 444.462811 389.716846 512z" fill="#000000" p-id="12046">
	</path>
	<path d="M414.854583 512c0 53.651749 43.493669 97.145417 97.145417 97.145417s97.145417-43.493669 97.145417-97.145417S565.651749 414.854583 512 414.854583 414.854583 458.348251 414.854583 512z" fill="#1296db" p-id="12047" data-spm-anchor-id="a313x.7781069.0.i17" class="selected">
	</path>
	<path d="M482.286446 512a29.713554 29.713554 0 1 0 59.427108 0 29.713554 29.713554 0 0 0-59.427108 0z" fill="#000000" p-id="12048">
	</path>
</svg>
