<?xml version="1.0" standalone="no"?><!DOCTYPE svg PUBLIC "-//W3C//DTD SVG 1.1//EN" "http://www.w3.org/Graphics/SVG/1.1/DTD/svg11.dtd"><svg t="1612614148106" class="icon" viewBox="0 0 1024 1024" version="1.1" xmlns="http://www.w3.org/2000/svg" p-id="1257" width="32" height="32" xmlns:xlink="http://www.w3.org/1999/xlink"><defs><style type="text/css"></style></defs><path d="M960 561.28v-102.4l-124.16-40.96-28.8-69.76 56.32-117.76-72.32-72.32-115.84 58.24-69.76-28.8-44.16-122.88h-102.4L418.56 188.8l-71.04 28.8-117.76-56.32-72.32 72.32 58.24 115.84-28.8 69.76L64 462.72v101.76l124.16 40.96 28.8 69.76-56.32 117.76 72.32 72.32 115.84-58.24 69.76 28.8 44.16 122.88h101.76l40.32-124.16 71.04-28.8 117.76 56.32 72.32-72.32-58.88-115.84 30.08-69.76L960 560v1.28zM512 704c-106.24 0-192-85.76-192-192s85.76-192 192-192 192 85.76 192 192-85.76 192-192 192z" p-id="1258" fill="#2c2c2c"></path></svg>