<?xml version="1.0" standalone="no"?><!DOCTYPE svg PUBLIC "-//W3C//DTD SVG 1.1//EN" "http://www.w3.org/Graphics/SVG/1.1/DTD/svg11.dtd"><svg t="1612614052527" class="icon" viewBox="0 0 1024 1024" version="1.1" xmlns="http://www.w3.org/2000/svg" p-id="1693" width="32" height="32" xmlns:xlink="http://www.w3.org/1999/xlink"><defs><style type="text/css"></style></defs><path d="M489.054815 625.777778h56.888889c15.739259 0 28.444444 12.705185 28.444444 28.444444v113.777778c0 15.739259-12.705185 28.444444-28.444444 28.444444h-56.888889c-15.739259 0-28.444444-12.705185-28.444445-28.444444v-113.777778c0-15.739259 12.705185-28.444444 28.444445-28.444444z" p-id="1694" fill="#cdcdcd"></path><path d="M441.647407 597.333333h151.703704c20.859259 0 37.925926 17.066667 37.925926 37.925926s-17.066667 37.925926-37.925926 37.925926h-151.703704c-20.859259 0-37.925926-17.066667-37.925926-37.925926s17.066667-37.925926 37.925926-37.925926z" p-id="1695" fill="#cdcdcd"></path><path d="M574.388148 113.777778c99.365926 0 180.148148 80.782222 180.148148 180.148148V417.185185h-474.074074v-123.259259c0-99.365926 80.782222-180.148148 180.148148-180.148148h113.777778m0-75.851852h-113.777778c-141.463704 0-256 114.536296-256 256V436.148148c0 31.478519 25.41037 56.888889 56.888889 56.888889h512c31.478519 0 56.888889-25.41037 56.888889-56.888889v-142.222222c0-141.463704-114.536296-256-256-256z" p-id="1696" fill="#cdcdcd"></path><path d="M868.314074 502.518519V891.259259h-701.62963V502.518519h701.62963m18.962963-75.851852h-739.555556c-31.478519 0-56.888889 25.41037-56.888888 56.888889V910.222222c0 31.478519 25.41037 56.888889 56.888888 56.888889h739.555556c31.478519 0 56.888889-25.41037 56.888889-56.888889V483.555556c0-31.478519-25.41037-56.888889-56.888889-56.888889z" p-id="1697" fill="#cdcdcd"></path></svg>