<?xml version="1.0" standalone="no"?><!DOCTYPE svg PUBLIC "-//W3C//DTD SVG 1.1//EN" "http://www.w3.org/Graphics/SVG/1.1/DTD/svg11.dtd"><svg t="1612926813333" class="icon" viewBox="0 0 1123 1024" version="1.1" xmlns="http://www.w3.org/2000/svg" p-id="2335" width="52.640625" height="48" xmlns:xlink="http://www.w3.org/1999/xlink"><defs><style type="text/css"></style></defs><path d="M1079.73909 342.666054m-43.744602 0a43.744603 43.744603 0 1 0 87.489205 0 43.744603 43.744603 0 1 0-87.489205 0Z" fill="#ffffff" p-id="2336"></path><path d="M283.634359 58.326137m-23.283417 0a23.283418 23.283418 0 1 0 46.566835 0 23.283418 23.283418 0 1 0-46.566835 0Z" fill="#ffffff" p-id="2337"></path><path d="M365.008728 698.032154m-306.682591 0a306.682591 306.682591 0 1 0 613.365181 0 306.682591 306.682591 0 1 0-613.365181 0Z" fill="#ffffff" p-id="2338"></path><path d="M201.789619 1024C90.546624 1024 0 950.857143 0 861.251263S90.546624 698.502526 201.789619 698.502526c56.209463 0 107.244832 18.579697 143.933854 48.68351V165.806155a29.163068 29.163068 0 0 1 22.577859-28.222324L988.722095 0.705558a28.927882 28.927882 0 0 1 24.224161 5.644465 28.222324 28.222324 0 0 1 10.818558 22.577859v134.761599a0.940744 0.940744 0 0 1 0 1.17593v544.220487c0 89.60588-90.546624 162.748737-201.789619 162.748737s-201.789619-73.142857-201.789619-162.748737 90.546624-162.748737 201.789619-162.748737c56.444649 0 107.244832 18.579697 143.933854 48.68351V199.90813l-562.329812 124.413413v536.92972c0 89.60588-90.546624 162.748737-201.789618 162.748737z m0-267.641709c-79.49288 0-143.933854 47.037207-143.933854 104.892972s64.440974 104.657786 143.933854 104.657786 143.933854-47.037207 143.933854-104.657786-64.67616-104.892972-143.933854-104.892972z m620.185576-151.694993c-79.257694 0-143.933854 47.037207-143.933854 104.892972s64.67616 104.657786 143.933854 104.657786 143.933854-47.037207 143.933854-104.657786-64.440974-104.892972-143.933854-104.892972zM403.579237 189.089573v75.965089l562.329812-124.178227V64.911346z" fill="#ffffff" p-id="2339"></path></svg>